<svg id="Layer_1" data-name="Layer 1" xmlns="http://www.w3.org/2000/svg" viewBox="0 0 857.09 823.13"><title>1</title><path d="M929,523.33c-2.18,15.7-3.79,31.5-6.63,47.07-16.4,89.91-58.49,165.88-125,228.34-4.34,4.08-6.05,7.15-4.13,13.41,6.59,21.45-1.6,43.2-20,55.75-18.75,12.79-41.93,12.21-59.82-2.21-4.08-3.29-6.81-2.93-11-.93q-182.91,87.33-365.85-.11c-4.28-2-7.08-2-11.11.78-18,12.61-39.34,12.54-57.13.42-18.06-12.31-26-32.61-20.75-54.06,1.16-4.7.21-7.43-3.3-10.74C158,719.76,113,619.89,110.34,501.27c-.13-5.58-1.67-8.06-7-10.2a49.41,49.41,0,0,1-31-52.86c3-23.87,19.3-40.74,43.42-44,6.23-.84,8.23-3.77,9.66-9.09a393,393,0,0,1,45.12-103.85c5.52-9,13.09-10.8,20-4.94,5.45,4.63,5.86,10.51.91,18.7a387.51,387.51,0,0,0-39.73,89c-1.52,5-2.83,10.12-3.89,13.94,6.35,6.86,11.79,13.13,17.72,18.89a9.16,9.16,0,0,0,7.06,2.13c48.49-10,97.51-14.79,147-16.06,2.65-.07,6.18-2.26,7.7-4.53,12.6-18.79,30-27,52.3-23.93,5,.68,7.56-.64,10.33-4.38a545.77,545.77,0,0,1,79.84-86.54c3.45-3,3.61-5.44,2.71-9.91-1.79-8.84-1.68-18-2.74-27-.27-2.3-1.33-5.47-3.07-6.5a529.34,529.34,0,0,0-123.76-53.27c-24.68,29.63-45.47,34.77-76.94,18.19-11.08,11.46-22.58,23.16-33.84,35.08-4.74,5-9.79,7.36-16.29,3.82-7.79-4.24-9.49-12.85-3.15-19.63,10.84-11.61,22.09-22.85,33.49-33.9,3.19-3.09,4.29-5.36,2.8-9.94-7.64-23.52-.11-45.52,19.55-58.73s42.44-11.78,61.66,4.31c3.56,3,6,2.49,9.55.72,58-28.74,119.58-42.23,184.15-41.58,59.59.6,116.64,13.15,170.48,39.16,4.35,2.1,7.39,2.71,11.87-.78,17.63-13.72,39.2-14.24,57.67-2.26,18.2,11.81,27.31,32.66,22.21,53.57-1.55,6.35-.19,10,4.6,13.4A23.4,23.4,0,0,1,795,192.2c9,10.6,18.17,15.6,33.9,11.89,20.32-4.78,37,5.94,47.82,23.5s10.8,36.06-.5,53.63c-3,4.73-3.09,7.8-.37,12.54,30.13,52.59,46.87,109.3,51.65,169.64a79.53,79.53,0,0,0,1.47,8.05Zm-572.73-49.7a15,15,0,0,0-1.33,1.78c-44.84,92.46-62.25,190-53.2,292.19.21,2.42,3.73,5.79,6.34,6.54,11.09,3.18,20.79,8.48,27.6,17.74,3.34,4.53,6.19,4.38,10.47,2.37,37-17.36,75.18-32.59,110.85-52.36,84.31-46.74,155.89-109.12,216.38-184.22,2.89-3.59,2.51-5.94,1.18-10.19-3.08-9.89-5.77-20.24-6.22-30.51-.27-6.09-1.74-8.63-6.79-11.11a751.6,751.6,0,0,0-182.81-62.41c-19-3.85-38.25-6.56-57.08-9.74C409.09,466.9,388.79,479,356.27,473.63ZM775.75,784.19a12.83,12.83,0,0,0,1.66-1.15c37.86-34.34,67.49-74.74,89.67-120.75,2.59-5.38.52-7.94-2.9-11.33A765.1,765.1,0,0,0,760.32,564.2c-3.08-2.13-5.54-6-10.81-2.18-5,3.58-3.66,7.09-2.76,11.45,4,19.34,8.2,38.67,11.66,58.12,1.53,8.56-3,13.95-10.62,14.95s-12.57-3.78-14.46-13.76c-3.75-19.85-7.73-39.65-11.52-59-4.37-.38-6.88-.47-9.35-.83-2.75-.41-5.78-.49-8.14-1.74-5.9-3.16-9.13-.94-13,3.87-63.6,78.82-139.14,143.83-228.18,192.14-35.14,19.06-72.57,33.86-108.86,50.83-2.8,1.3-6,4-6.88,6.67-1.56,4.91-1.5,10.34-2.17,16a26.29,26.29,0,0,0,2.57,1.58Q519,924,690.42,842.91c4.46-2.11,4.88-4.59,4.42-9.07-2.84-27.17,10.86-48.54,36.41-56.58,4.7-1.48,6-3.88,6.22-8.14.76-19.49,1.66-39,2.37-58.48.35-9.7,4.92-15.1,13-14.86,7.75.23,12.27,5.39,12.07,14.85-.38,17.84,0,35.79-2.15,53.44C761.42,775.16,763.81,781.49,775.75,784.19Zm-641.38-290C140.65,607.46,181.6,705,262,784.2c14.11-3.35,15.2-11.55,14.23-22.47a551,551,0,0,1,8.46-154.83,573.89,573.89,0,0,1,46.4-140c1.24-2.56,2.84-6.27,1.89-8.35-4.55-9.93-9.93-19.49-15.46-30a49.29,49.29,0,0,0-6.66,0c-40.16,4.39-80.3,9.07-120.5,13.15-11.18,1.14-17.65,3.65-19.59,17.14C168,477.7,153,487.59,134.37,494.16Zm635.53-291c-29.58,18.62-53.88,14.56-75.8-11.62-1.31-1.57-5.32-2.15-7.56-1.48-39.38,11.77-76.67,28.39-112.34,48.76-4.45,2.54-4.94,5.31-4.82,10,.19,7.67,0,15.69-2.12,23-1.77,6.13-.73,9.32,3.85,13.38A566.83,566.83,0,0,1,701.91,455c5.2,10.28,9.44,20,23.6,17a1.51,1.51,0,0,1,.82.16c4.61,2,6.78-.24,9.09-4.18a771.89,771.89,0,0,0,72-163.11c1.56-5,.35-7.25-3.66-10.16-11.64-8.42-18.07-20.3-20.07-34.41-1.82-12.87,1.55-24.77,8.6-36.16ZM767.34,535.6l113.35,93.28c.75-2,2.06-5.33,3.2-8.7a371.26,371.26,0,0,0,18.86-93.91c5.36-77-9.74-149.6-47.15-217.3-1.46-2.64-5.82-6.51-7.1-5.94-5.65,2.51-14.2-2.07-17,8.18-4.27,15.53-9.86,30.73-15.46,45.86a786.42,786.42,0,0,1-58.35,122.81c-1.45,2.5-2.22,7.41-.8,9.24C768.16,503.64,771,519.66,767.34,535.6ZM407.7,388.16c3.33,5.37,6.89,9.82,9,14.88,1.94,4.71,5,5.69,9.45,6.5,31.47,5.72,63.16,10.6,94.26,17.94,53.81,12.7,105.16,32.58,154.78,57,2.5,1.24,6.44.48,9.32-.51.86-.29,1.27-5,.35-6.91A547.83,547.83,0,0,0,552,301.75c-1.69-1.49-5.75-2.16-7.73-1.19-16.73,8.18-33.14,8.15-49.79-.22-1.77-.89-5.47-.24-7,1.12A534,534,0,0,0,407.7,388.16ZM687,148.72c-3.24-1.57-6.93-3.47-10.71-5.17a376.06,376.06,0,0,0-138.15-32.78c-65.25-3-127.47,9.29-186.2,38.16-2.44,1.2-5.08,5.29-4.83,7.74s3.54,5.78,6.23,6.83c26.42,10.33,53.28,19.55,79.4,30.56,17.35,7.31,33.68,17,50.52,25.67,25.89-19.49,41-19.48,73.65.19,36.52-21.53,74.89-39.26,115.49-51.79C682.07,165.14,689.38,161.83,687,148.72ZM147.79,444.15c0-14.47-10.76-25.47-25.13-25.77-13.58-.29-25.46,11.54-25.61,25.49-.15,14.17,11,25.86,24.91,26C136.83,470,147.82,459.1,147.79,444.15Zm223.11,5.78c14.76,0,25.91-11.25,25.72-26a25.75,25.75,0,0,0-26-25.12c-14,.19-25.61,12.05-25.34,25.77C345.61,439.08,356.54,449.91,370.9,449.93Zm372.59,72.8c.14-14.89-10.87-26.14-25.57-26.11-13.47,0-24.82,11.33-25.12,25-.31,14.5,11.28,26.68,25.3,26.59C732.46,548.15,743.34,537.21,743.49,522.73Zm-472.38-359a25.84,25.84,0,0,0,25.09,26c13.78.26,25.68-11.4,25.81-25.29.14-14.95-10.76-26.09-25.53-26.08C282.09,138.31,271.27,149.14,271.11,163.69Zm248.55,66.56a25.77,25.77,0,0,0-25.73,25.31c-.17,13.89,11.42,26,25.09,26.13a25.52,25.52,0,0,0,26-25.9A25.19,25.19,0,0,0,519.66,230.25ZM770.19,826.54c.11-15-10.75-26-25.56-26-14.49.08-25.12,10.79-25.26,25.43a25.41,25.41,0,0,0,50.82.53ZM737.13,138.19a25.48,25.48,0,0,0-25.76,25.16c-.13,14.85,11,26.15,25.64,26.06,14.4-.1,25.14-10.91,25.34-25.52A25.51,25.51,0,0,0,737.13,138.19Zm-466,685.74a25.46,25.46,0,1,0,50.92.37c.18-14.16-11.87-26.44-25.78-26.28C282.48,798.18,271.05,810,271.09,823.93ZM808.44,254c0,14.82,11.19,25.83,26,25.61,13.54-.2,24.61-11.49,24.79-25.27a25.28,25.28,0,0,0-24.87-25.94C819.43,228.21,808.42,239.09,808.44,254Z" transform="translate(-71.91 -85.2)"/></svg>