<svg id="Layer_1" data-name="Layer 1" xmlns="http://www.w3.org/2000/svg" viewBox="0 0 747.69 747.71"><title>10</title><path d="M874,265.76c-.94,28.56-13,59.44-38.48,84.89Q624.83,561.2,414.14,771.74c-5.91,5.89-13.1,11.35-20.72,14.53Q292,828.66,190.13,869.92C165.87,879.7,145,873.45,133,854.34c-8.09-12.88-8.63-26.5-2.78-40.75,28.7-69.9,57-140,86-209.75,2.92-7,8.86-13.15,14.4-18.7Q440.44,375,650.58,165.05c37.67-37.63,93.82-48.53,141.9-28.14C841.67,157.79,874.17,206.32,874,265.76ZM674.94,446.21,556.41,326.82,273.77,608.94c39.07,39.42,79.35,80,118.51,119.54Zm98.25-99.44c14-12.58,30.73-24.23,43-39.51,22.62-28.22,24.47-60.94,8.8-92.94-15.22-31.06-41.66-46.28-76.72-47.63-46.42-1.8-69.63,31.81-96.56,59.22Q714,287.89,773.19,346.77Zm-529,303.66c-5.94,13.74-11.83,27.13-17.55,40.59-18.39,43.35-18.37,43.36,14.87,76.68,6,6,11.78,12.38,18.18,18,2.7,2.36,7.59,5.32,10,4.36,27.19-10.65,54.1-22,80.63-33ZM737.34,386.14l-121.45-122-27.61,23.72,124.5,124.45ZM171.59,825.7l3,4,44-19.21-28.38-28.74C183.81,796.78,177.7,811.24,171.59,825.7Z" transform="translate(-126.31 -126.78)"/></svg>