<svg id="Layer_1" data-name="Layer 1" xmlns="http://www.w3.org/2000/svg" viewBox="0 0 764.31 764.84"><title>11</title><path d="M810,608.54C831,483.81,797.54,379.4,703,296c-10.75-9.48-23.08-17.17-34.75-25.61-6.9-5-12-10.56-5.74-19.2,5.92-8.18,12.41-5.07,19.16-.67,85.47,55.63,137.08,133.91,155.14,234a297.52,297.52,0,0,1-2.53,119.9c-2.11,9.26-.08,14.54,8,19.91,29.06,19.21,44.31,59.25,36.76,93.66-8,36.27-37.8,64.56-74.18,70.35-40.15,6.38-79.69-13.33-97.21-48.45s-10.86-79.41,17-106.61c21-20.56,46.58-29.12,76-25.79C803.11,607.79,805.61,608.05,810,608.54Zm-21.65,157c37.84.32,67.6-28.28,68.14-65.49.55-37.73-28-67.35-65.53-68s-68.44,29.44-68.37,66.64C722.7,735.65,751.78,765.19,788.38,765.5ZM408.23,234.57c-53,16.42-99.52,43.28-138.16,83.05-45.5,46.83-74.25,102.48-85.67,166.88a239.45,239.45,0,0,0-3.53,27.41c-.53,8.76-2.92,16.35-12.75,16-11.05-.44-11.58-9.29-10.85-18,4-48.08,16.88-93.43,40.62-135.63,44.81-79.65,111-133.06,197.67-161.15,7.68-2.49,11.95-5.8,12.28-14.19,1.68-44,45.2-86.49,101.72-80.5,46,4.89,82.09,47.2,80,96.8-2,48.16-43.67,86.4-92.9,85-39.36-1.15-67-19.89-82.59-56.16-1-2.36-2.15-4.68-3.33-7C410.45,236.42,409.75,236,408.23,234.57Zm90.59-92.64c-36.77-.14-67.15,29.19-67.43,65.1-.29,38.41,29.6,69,67.32,69,35.78-.06,67-31.84,66.73-68A66.48,66.48,0,0,0,498.82,141.93ZM272.34,763.26a306,306,0,0,0,108.2,72.09c74.78,29.39,150.23,30.88,226,3.47,3.12-1.13,6.35-2,9.42-3.22,8.15-3.28,16.07-3.58,19.2,6.07,3.06,9.46-3.78,13.73-11.69,16.93a327.52,327.52,0,0,1-159.66,22.09c-77.05-8.28-145-38.6-201.23-93-7.23-7-12.59-9-22.79-4.66-58.4,25-124.07-21.87-123.09-86.42.75-49.09,36-81.45,72.45-88.81,44.48-9,88,14.28,103.8,56.64C304.71,696,301.38,727,279.6,754.32,277.32,757.2,275,760,272.34,763.26Zm-64.95,2.23c37.64,0,66.69-28.6,67.28-66.22.58-37.06-29.88-67.41-67.5-67.28a66.26,66.26,0,0,0-66.54,67C140.72,736.64,169.68,765.51,207.39,765.49Z" transform="translate(-116.69 -117.83)"/></svg>