<svg id="Layer_1" data-name="Layer 1" xmlns="http://www.w3.org/2000/svg" viewBox="0 0 845.13 810.18"><title>12</title><path d="M215.34,844.57c9.85-57.91,16.38-113.72,29.51-167.93,10.36-42.77,3.87-73.73-31.34-102.92-40.55-33.61-76.13-73.2-114-110.09-18.65-18.18-27.59-39.13-18.87-65,8.62-25.61,27.45-37.74,53.63-41.42,63.35-8.89,126.49-19.34,190-27.32,18.67-2.34,28.57-11.12,36.06-26.65C386.75,248.4,414,194,440.14,139.06c12.25-25.73,29.51-45,59.4-45.06s47.3,18.57,59.62,44.59c26.36,55.7,54.23,110.69,80.94,166.22,7.28,15.13,17.43,22.65,34.68,24.9,62.64,8.14,125,18.16,187.61,26.88,27.7,3.87,48.64,15.78,57.25,43.75,8.35,27.13-2.83,48.14-21.92,66.57C852.79,510.28,808.23,554,763.06,597.15c-12.73,12.15-17.49,24.55-14,42.68,11.63,61.34,21.3,123.06,32.17,184.55,4.62,26.14,1.73,49.69-20.17,67.47-21.64,17.56-44.52,14.48-67.33,2.49-55.26-29-110.72-57.72-165.46-87.71-19.49-10.68-35.9-11.41-56-.26-54.53,30.36-110,59-165.53,87.55C271.68,912,240,904.41,223.93,874.17,218.91,864.7,217.74,853.19,215.34,844.57Zm31.79-2.44c2.72,5.1,5.67,19.18,13.89,23.73,8.4,4.65,23.73,3.44,33-1.21C349,837,403.63,808.46,457.4,778.48c28.66-16,54.68-16.69,83.58-.64q80.73,44.8,163.47,85.92c9.9,4.94,28,7.09,34.62,1.47,8-6.78,12.28-23.83,10.62-35.35-8.61-60.16-18.56-120.19-30.21-179.84-6.7-34.26,2.38-60.32,27.73-83.81q65.14-60.33,127.36-123.75c8.23-8.4,16.38-26,12.84-34.47-4.27-10.18-20.28-19.45-32.54-21.62-61.36-10.88-123.06-20-184.84-28.28-27.33-3.67-45.16-16.76-56.9-41.39-27.19-57-54.69-113.88-83.76-169.94-5.45-10.51-19.23-24-28.36-23.42-10.86.69-24.83,13-30.56,23.89-29.76,56.61-57.67,114.2-85.48,171.8-10.67,22.09-26.78,34.79-51.13,38.31-63.28,9.13-126.6,18.08-189.6,28.93-11.76,2-28.87,10.69-31.28,19.6-2.85,10.51,4.32,27.8,12.85,36.64,42.24,43.71,86.21,85.76,129.88,128.08,20.19,19.57,30.79,41.12,25.31,70.68C269.06,705.69,259.09,770.45,247.13,842.13Z" transform="translate(-77.31 -94)"/></svg>