<svg id="Layer_1" data-name="Layer 1" xmlns="http://www.w3.org/2000/svg" viewBox="0 0 642.33 708.3"><title>13</title><path d="M820.59,501.62c0,74.11-.74,148.24.4,222.35.41,26.59-10,45.8-30.19,60.89C746.51,818,695,833.07,641.54,841.69c-115.06,18.57-229.82,18.68-342.43-14.6-29.65-8.76-58-24-84.85-39.68-24.94-14.58-35.8-38.13-35.59-68.78q1.54-218.16.05-436.32c-.18-29.62,11.28-50.89,33.74-68,40.64-31,88.15-45.25,137.28-53.78C474.57,138.81,599,138.34,720.21,179.63c28.89,9.84,56.23,28,79.93,47.64,11.87,9.83,19.13,31.35,19.57,47.82C821.72,350.55,820.59,426.1,820.59,501.62Zm-321-131.68c53.21-6.53,107-10,159.42-20.66,36.31-7.38,72.51-21.06,105.35-38.37,45.39-23.93,45-59.42.31-85.29a329.08,329.08,0,0,0-80.84-33.41c-109.8-28.65-220.94-29.34-332.11-8.48-44,8.27-87.13,20.78-124.22,47.67-33.22,24.08-33.65,50.35-.38,73.64a219.83,219.83,0,0,0,45.93,24.58C345.72,357.9,421.88,365.3,499.62,369.94ZM202.32,628.18c0,32.7.7,62.65-.23,92.54-.68,21.91,7.6,39.25,26.16,48.88,27.08,14,54.68,28.47,83.73,37.09,86.12,25.54,174.86,27.64,263.59,20.54,56.34-4.51,111.73-15.33,164.31-38.29,41.69-18.2,65.65-44.86,58.9-93.63-3-21.39-.5-43.53-.5-67.51C624.83,723.55,378.19,723.56,202.32,628.18Zm.19-309.91c0,32.54,1,61.63-.3,90.62-1.19,26.58,11,45,33,56,25.43,12.72,51.64,25.16,78.89,32.72,103.12,28.6,207.93,30,313.12,13.36,49.14-7.75,97.55-19.3,139.62-47.41,11.55-7.71,26.42-20.35,27.56-31.92,3.57-36.3,1.31-73.16,1.31-111.81-91,59.08-192.2,68.95-295.54,68.79S295.49,379.19,202.51,318.27Zm.78,154.12c0,31.92,1.7,60-.46,87.67-2.37,30.45,12.47,48.92,36.54,62.53A264.43,264.43,0,0,0,275.3,639.5c84.53,32.31,172.81,37.7,262,34.87,69.53-2.21,137.63-13,202.13-40.43,23.3-9.92,50.91-21.46,54.89-47.52,5.48-35.81,1.37-73.08,1.37-112.82-90.16,61.54-191.86,70.78-294,70.79C398.8,544.4,296.21,536.1,203.29,472.39Z" transform="translate(-178.67 -145.92)"/></svg>