<svg id="Layer_1" data-name="Layer 1" xmlns="http://www.w3.org/2000/svg" viewBox="0 0 714.47 683.69"><title>14</title><path d="M426.93,605.8c5.77,10.43,10.24,18.25,14.47,26.2,8,15,6.1,21.06-8.53,29.43-8.41,4.82-16.73,9.8-25.06,14.75-1.22.73-2.3,1.7-4.16,3.09,14.43,24.85,28.2,49.32,42.69,73.36,17,28.22,10.57,61.53-15.67,77.84-29.53,18.37-62.15,10.33-79.93-20.19q-32.94-56.55-65.13-113.55c-4.49-7.93-8.36-11.29-19.14-8.81-50.57,11.63-96.59-13.13-115.15-60.3-17.66-44.88-.1-94.1,43.56-120.18,32.05-19.13,65-36.77,96.65-56.51,13.2-8.24,26.06-18.63,35.66-30.74,57.56-72.56,114.11-145.93,171-219,18.54-23.8,53.56-20.83,69.7,6.13,15.19,25.37,29.39,51.35,45.19,76.32,3.37,5.33,11.58,7.94,18,10.87,2.81,1.28,6.71,0,10.09.26,13.83,1,32.69-3,40.39,4.44,14.41,13.95,22.91,34.29,32.51,52.69,2,3.84-.75,11.39-3.33,16.13-5.07,9.34-10.78,18.58-17.66,26.63-9.21,10.77-8,19.94-.74,31.29,13,20.44,24.68,41.72,36.66,62.79,16.65,29.29,2.72,58-30.42,64.37C609.22,570.26,519.91,587.75,426.93,605.8Zm69.43-354.22c-3.4,3.12-5,4.24-6.17,5.71C441,319.72,391.63,382.07,342.92,444.91c-2.69,3.48-2.24,12.11.18,16.41,20.67,36.72,42.41,72.84,63.15,109.53,5,8.8,10,10.49,19.76,8.49,55.95-11.48,112.08-22.09,168.14-33.07,21.06-4.12,42.07-8.45,65.2-13.1Zm-109.12,340c-22.85-39.75-44.59-78-67.15-115.77-1.43-2.4-10.31-3-13.81-1.07-33.78,18.93-67.41,38.17-100.56,58.18-34.82,21-45.46,63.28-25.42,97.34,20.22,34.38,63,44.92,98.71,24.34,14.26-8.22,28.59-16.32,42.8-24.61C343.41,617.4,364.93,604.68,387.24,591.58Zm323-78.73c-3.33-7.28-5.14-12.27-7.74-16.8q-45.87-80-91.92-159.9-32.24-56-64.43-112c-5.36-9.37-12.82-13.74-22.76-8.21-9.63,5.35-8.79,13-3.53,22C574,331.33,627.77,425,682.16,518.23c2.33,4,10.5,7.81,14.66,6.73C702,523.62,705.85,517.1,710.24,512.85ZM351.82,643.29c-15.29,8.75-29.29,16.26-42.6,24.86-2.3,1.49-3.56,8.67-2,11.39,21.3,38,42.86,75.87,65.05,113.36,9.07,15.31,25,19.48,38.64,11.85,15-8.41,19.31-24.51,10-41.36-13.09-23.73-26.85-47.1-40.38-70.59C371.18,676.58,361.75,660.42,351.82,643.29Zm283.4-318.54,33.24,58.9c6.36-13.17,21.16-18.7,14.86-33.09C670.89,322.2,664,318.73,635.22,324.75ZM416.5,638.92c-7.33-8.93-12.52-20.37-17.78-20.4-7,0-14.05,8.8-21.08,13.82,5.28,6.79,9.47,17.21,16.17,19.2C399.1,653.12,407.47,644.32,416.5,638.92ZM838,221.1c-22.18,11.8-43.72,24.83-66,36.51-9.9,5.2-15,12.31-9.36,21.93,5.18,8.9,14.18,6,21.84,1.7,21.94-12.27,44-24.4,65.62-37.14,4.34-2.56,7.22-7.62,8.85-9.41C858.7,219.59,849.69,214.89,838,221.1ZM760.12,359.64c-.6,4.22,3.55,12.22,7.27,13.44a617.41,617.41,0,0,0,62.75,17.07c4.1.88,12.45-4.4,13.85-8.53s-2.35-13.86-5.87-15c-21.44-7.18-40.46-10.62-65.27-17.46C764,349,760.8,354.92,760.12,359.64ZM695.57,237.58c4.7.47,10.43-3.58,13.46-10.65,7.58-17.73,10.55-37.16,15.37-55.84,2.6-10.09-4.19-13.26-7.63-14.05-8.77-2-14.8,2.48-16.19,6.34-6.69,18.54-10.43,37.79-16.47,59.53a7,7,0,0,0-.07,3.62C686,233.63,691.43,237.17,695.57,237.58ZM289.22,614.5c2.67-1.82,5.78-10.5.64-16C287,595.45,285,592,275,594.4c-6.8,1.64-13.1,6.07-19.13,10-11.62,7.65-20.72,7.25-29.84-4.75-2.75-3.61-7.07-7.69-17.31-3.94-7.76,6.25-5.11,13.92-2.95,18.8,6.62,15,19.19,28.45,42.72,23.23C259.18,631.61,274.75,624.35,289.22,614.5Zm37.69-49.76c-4.53,1.5-9.91,4.26-10.23,12.3-.35,8.62,4.68,16.34,12.91,14.85,5.14-.94,11.41-1.89,14.48-15.34C341.58,566.58,333.74,562.48,326.91,564.74Z" transform="translate(-144.53 -156.53)"/></svg>