<svg id="Layer_1" data-name="Layer 1" xmlns="http://www.w3.org/2000/svg" viewBox="0 0 768.66 729.8"><title>15</title><path d="M221.54,311.93c19.89,22.43,29.11,46.44,17,75-12.8,30.13-45.16,45.54-76.9,36.56-29.27-8.28-49.93-38.77-45.75-67.53,5.12-35.34,32-60.13,65.46-58.13,11.9.71,17.55-3.71,23.74-12.39C259.73,208.81,331.56,157.18,425.31,141c76.2-13.19,150,.13,219.89,31.49,109.08,48.92,178.58,132.22,207.63,248.39,12,47.86,13.81,96.39,3.95,145-2.4,11.84-2.41,20.63,8.39,30,19.72,17.09,23.88,47.89,12.82,71.71-11.2,24.11-36.78,39.63-63.21,36.16-9.59-1.26-14,1.83-19,8.73C720.12,815.62,617.42,868.14,490.26,865.63c-173.77-3.44-309-125.07-345.41-284-.69-3-1.16-6.11-2-9.08-2.92-10-2.9-19.46,9.22-22.38,11.95-2.87,15.27,5.31,18.6,15.45,10.29,31.38,18.29,64.28,33.76,93.06,53.51,99.53,136.74,160.4,249.66,174.48C583.65,849.3,688.76,803.45,768.4,699.7c6.2-8.07,8.61-13.73.6-23.8-29.49-37.08-4.15-94.53,43.84-99.91,11-1.24,15.16-4.75,16.7-15.32,17-117-15.23-217.69-100.42-300-53.49-51.7-118.84-80-192.06-91.06-58.63-8.87-115.77-5.33-170.6,19.11C306.63,215.37,259.07,256.5,221.54,311.93Zm597.85,361c20.33.15,36-14.9,36.24-34.86.25-19-16.34-35.6-35.69-35.72-19.15-.11-36.29,16.42-36.45,35.17C783.31,657.08,799.24,672.79,819.39,672.94ZM213,361.08c0-20.31-14.92-35.54-34.87-35.62-19.57-.08-34.89,15.55-34.95,35.66-.05,20.44,15,35.82,34.87,35.65S213,381.21,213,361.08Zm223.2-81.61C340,303.59,269.76,398.14,269.77,501.67c0,100.28,71.54,194.79,166.29,218.64,2-3.13,4.41-6.4,6.26-10,11.58-22.27,30.56-34.24,54.9-35.14,24.61-.92,44.69,10.49,56.36,32.32,6.41,12,12.06,12.76,24.14,8.41C724.9,663,776.7,476.3,677.54,355c-7-8.6-18.5-18.5-6.09-29s20.2,2.07,27.39,10.81c112.51,136.66,58,353.69-122.73,410.33-6.64,2.08-13.86,9-16.67,15.42-10.49,24.15-32.85,41-58.66,41.89a62.28,62.28,0,0,1-59.88-39.4c-4.63-11.69-11.95-15.63-22.77-19.59C319,709.11,259.72,639.18,243.74,534.2c-18.68-122.66,58.75-246.6,182.6-283.14,5.14-1.51,10.37-7.8,12.64-13.1,12.43-29.06,37.2-43.37,71.43-40.08,24.09,2.32,47.63,25.61,51.78,51.24,4.92,30.42-9.32,57.54-36.9,70.26-28.94,13.34-64.59,2.06-81.24-25.76C441.42,289.23,439.07,284.67,436.2,279.47Zm63.6,15.09c19.95-.17,36.73-16.19,36.47-34.83s-18.86-36.51-37.83-36.29S463.21,240.8,463.56,260C463.93,279.85,479.53,294.74,499.8,294.56Zm-1.05,480.38c20.74,0,35.47-14.48,35.51-34.94,0-20.11-15.34-35.48-35.41-35.39S463.4,720,463.36,740.07C463.31,760.76,477.68,774.92,498.75,774.94ZM499,347c84.29,0,152.87,69,152.86,153.83,0,83.32-68.84,154-152.21,153.33C407.78,653.4,345.92,580,346,500.67,346.06,415.2,414.39,347,499,347Zm-.61,278.33c69.79,0,125.28-55.75,125.18-125.67-.09-68.81-55.73-123.93-125.08-123.92A124.08,124.08,0,0,0,374.19,500.37C374.16,569.32,429.87,625.36,498.4,625.31ZM150,498.49c-5.14.62-10,.51-12.12,12.56,1.09,10.95,6.71,12.23,11.85,13,4.62.68,12.24,0,15-12.65C162,501,154.69,497.92,150,498.49ZM622.52,298c1.48,8,8.64,11.65,12.12,11.49,10.36-.47,12.62-7.74,13.13-12.65.49-4.74-3.77-12.82-13.44-12.76C623,286,621.56,292.78,622.52,298ZM499.93,406.18c-51.38-.31-92.81,39.79-93.56,90.54-.78,53.12,39.54,95.58,91.45,96.29,51.38.71,92.61-40.29,93.11-92.56C591.43,447.83,551.52,406.49,499.93,406.18Zm-2.06,157.23c-35.11-.49-61.09-28-61.08-64.63,0-36.07,27.95-64,63.81-63.87,34.2.16,62.62,29.17,62.76,64.08A64.16,64.16,0,0,1,497.87,563.41Z" transform="translate(-115.34 -135.91)"/></svg>