<svg id="Layer_1" data-name="Layer 1" xmlns="http://www.w3.org/2000/svg" viewBox="0 0 533.6 753.5"><title>16</title><path d="M768.8,388.2c-4.1,74.8-30.5,139.9-64,202.5C669.6,656.5,629,718.6,572.7,768.9c-6.2,5.4-12.7,10.6-19.4,15.4-40.5,28.6-66.7,28.8-106.4-1.7-65.7-50.5-111.5-117.7-148-190.6-23.3-46.6-44.6-95.9-56.7-146.3-34.7-144.8,62.7-288.9,209-316.1,148.9-27.7,291.2,72.7,313,220.9C766.2,363.9,767.5,377.3,768.8,388.2Zm-46.7,5.5c-1.6-.4.9-.9-.7-1.4-1.1-13.5-1.1-27.1-3.5-40.4C695.7,230.2,575.5,150.7,453.8,177.1S256.7,324.9,288.2,444.5C317.4,555.1,377.3,649,455.9,730.8c38.3,39.7,55.6,38,96.1-5.2C614.2,659.2,663.5,584,696.3,499,709.4,465.1,722,438,722.1,393.7ZM362.4,809.6c5.2-7.8,9.9-12.8,12.2-18.8,6.3-15.9-6.5-35.2-21.4-29.4s-33.3,18.3-41.9,32.7c-9.9,16.5-1.9,36.3,15.6,46.6s33.3,18.1,51.1,22.5c81.6,20.3,163.7,20.3,245.3.3,17.2-4.2,33.9-12.1,49.5-20.8,17.4-9.7,24.7-26.4,19.6-46.1s-20.8-31.4-39.9-35.3c-6.8-1.3-17.8,4.1-22.4,9.9s-2.2,15.2-.9,22.7c.8,4.5,5.7,8.2,11.1,15.6C546,841.7,455.3,842,362.4,809.6ZM503.3,223.3A144.3,144.3,0,0,0,356.6,365.9c-1.3,81.6,57.6,146.5,134.7,148.6,82.7,2.2,154.4-63.8,155.2-143.1C647.5,288.9,585.2,224.5,503.3,223.3ZM502,467.6c-55.1.3-98.7-42.8-99-98s42.1-99.9,96.9-100.5,99.1,44.2,99.9,98.5S556.1,467.2,502,467.6Z" transform="translate(-235.2 -125)"/></svg>