<svg id="Layer_1" data-name="Layer 1" xmlns="http://www.w3.org/2000/svg" viewBox="0 0 460.9 795.5"><title>17</title><path d="M729.4,500.6q0,152.3,0,304.6c-.1,54.8-35.5,91.5-90.1,91.8q-140.5.9-281,0c-52.9-.4-89.6-37.8-89.6-90.8q-.4-306.9,0-613.9c0-53.4,36.3-89.7,89.7-90q140.4-.6,281,0c55.5.3,89.9,35.6,90,91.3ZM318.7,430.9c0,79.3.6,158.7-.5,238.1-.2,19.2,6.1,24.3,24.5,24.1q156.2-1.1,312.2.1c19.4.1,25.9-5.2,25.8-25.3-.7-157.2-.3-314.4-.4-471.5-.1-36.4-10.8-47.3-46.7-47.4q-134.6-.3-269.3,0c-33.9.1-45.5,11.9-45.6,46.1Q318.6,313,318.7,430.9Zm.1,310.1c0,24.8-.7,47.7.2,70.4.9,24.6,14.4,38.6,39.1,38.7,94.5.6,189,.4,283.4.1,19.8-.1,35.2-9.9,37-30,2.3-25.7.6-51.8.6-79.2ZM509,184c-51.9,51.2-103.7,102.6-154.8,154.6-10.9,11-12,27,1.7,34.9,8.1,4.6,18.7,5.8,26.9.1,16-11.1,34.9-29.8,48.9-43.8,36-35.7,72.5-71,107.4-107.8,6.3-6.7,12.6-17.9,11-27.1-1.1-7-7.1-16.9-21.9-20.6C519,174,513.1,179.9,509,184ZM389.4,263.7c19-18.4,38.6-36.3,55.9-56.2,3-3.4,2.7-15.5-6.4-24.3s-20.4-6.7-24.7-3.2c-18.7,15.3-36.8,32.2-51.7,51.1-10.3,13,3.1,33,20.9,33.8C384.9,264.7,388,265.1,389.4,263.7Zm129,528.8c-4.4-12.8-8.3-14.2-18.2-16-15.3-2.8-23.2,7.1-23.6,20.3s7.9,23.3,22.7,21.5c9.9-1.3,14.7-2.9,18.9-15.6C518.3,799.3,518.4,795.9,518.4,792.5Z" transform="translate(-268.5 -102)"/></svg>