<svg id="Layer_1" data-name="Layer 1" xmlns="http://www.w3.org/2000/svg" viewBox="0 0 858.21 865.57"><title>2</title><path d="M288.31,933q-48.09-28.05-96.2-56.08c-35.82-20.78-71.6-41.65-107.67-62-9.44-5.32-13.69-12.06-13.65-23q.38-114.21,0-228.42c0-10.27,4.08-16.59,12.9-21.64,61.63-35.26,123-71,184.65-106.18,6.64-3.78,8.58-7.89,8.56-15.22-.28-70.51,0-141-.33-211.51-.06-11.51,4-18.68,14.11-24.44q98-56,195.44-112.85c9.68-5.64,17.79-5.65,27.47,0q98.24,57.22,196.9,113.69c8.86,5.08,12.65,11.74,12.62,21.89-.21,71.07,0,142.13-.27,213.2,0,7.32,1.88,11.44,8.53,15.24,61.43,35,122.51,70.68,183.94,105.71C925.15,547,929,554,929,565.19q-.45,112.51,0,225c0,11.79-4,19.18-14.42,25.13-66.81,38.1-133.33,76.73-199.93,115.21a32.32,32.32,0,0,0-3.21,2.44H701.29Q604,876.83,506.76,820.55c-5.06-2.94-8.71-2.94-13.77,0Q395.85,877,298.46,933ZM482.89,589.15c-2.5,1.18-3.53,1.59-4.49,2.14Q397.18,638.17,315.9,685c-5,2.84-5.19,6.47-5.19,11.12q.1,90.49.07,181c0,2.67.29,5.33.49,8.77,2.36-1.11,3.88-1.7,5.28-2.51q80.49-46.45,161-92.82c4.86-2.78,5.38-6.2,5.37-11q-.15-90.9-.07-181.82Zm206.1,297v-9c0-60.33-.1-120.66.15-181,0-6.21-2.06-9.4-7.37-12.44q-78.46-44.9-156.62-90.27c-2.35-1.36-4.82-2.51-8-4.15-.13,2.54-.28,4.13-.28,5.71,0,62,.07,124-.15,186.07,0,5.15,2.09,7.42,6.1,9.72q79.48,45.68,158.85,91.58C683.56,883.48,685.56,884.4,689,886.17Zm0-653.12a17.68,17.68,0,0,0-3.44.92q-82.32,47.46-164.5,95.17c-2.32,1.36-4,5.81-4,8.83q-.35,92.14-.14,184.3a63.58,63.58,0,0,0,.71,6.64c1.81-.84,2.84-1.23,3.78-1.78q81.23-46.81,162.32-93.87c2.64-1.55,5-6,5.06-9.16.46-19.71.23-39.45.23-59.17ZM482.43,529c.21-1.89.43-2.9.43-3.92,0-62.85-.06-125.7.18-188.54,0-5.57-3.3-7.1-6.91-9.18Q397.88,282.21,319.61,237c-2.54-1.47-5.2-2.75-8.37-4.41-.24,2.19-.45,3.26-.45,4.33,0,62.57-.12,125.14.24,187.71,0,3.16,3.28,7.54,6.24,9.27q78.8,46,157.93,91.39C477.3,526.53,479.52,527.53,482.43,529ZM276.23,885.92c.28-2.19.47-3,.47-3.86,0-62.86-.05-125.72.18-188.57,0-5.42-2.93-7.22-6.69-9.39q-78.66-45.33-157.27-90.77c-2.24-1.3-4.57-2.46-7.53-4-.19,2.84-.36,4.23-.36,5.62,0,62,.07,124-.15,186,0,5.52,2.5,7.85,6.72,10.28Q190.34,836.5,268.93,882C271.06,883.23,273.26,884.33,276.23,885.92Zm618.13-296.3c-2,.82-2.79,1-3.49,1.45q-81.6,47.07-163,94.38c-2.56,1.49-4.61,6.16-4.62,9.36-.27,61.44-.21,122.89-.17,184.33a60.55,60.55,0,0,0,.73,6.53c1.8-.86,2.83-1.27,3.78-1.82q80.85-46.64,161.77-93.19c4.82-2.76,5.49-6.19,5.48-11q-.15-90.9-.08-181.8C894.72,595.38,894.51,592.91,894.36,589.62Zm-566-386.91c21.25,12.28,41.82,23.92,62.08,36.07,5.09,3.05,8.77,2.61,13.65-.23Q478.86,195,553.91,151.87c4.59-2.65,9.17-5.34,14.64-8.53-3-2-5.3-3.52-7.67-4.89-18-10.44-36.18-20.67-54.06-31.35-4.92-2.94-8.56-3.12-13.69-.13q-78.81,45.92-157.91,91.33C333.09,199.53,331.07,200.94,328.31,202.71ZM775,499.9c-21.91-12.65-42.46-24.26-62.71-36.36-4.83-2.88-8.25-2.64-13,.11q-78.88,45.89-158,91.35c-2.09,1.21-4,2.67-6.83,4.55,22.34,12.9,43.68,25.42,65.31,37.42,2.16,1.2,6.51.15,9.05-1.28,22.58-12.72,45-25.75,67.42-38.71Zm-412.4.23c-3.54-2.26-5.79-3.82-8.15-5.18-17.8-10.29-35.77-20.31-53.36-30.94-5.31-3.21-9.15-3.1-14.47,0q-78.13,45.5-156.56,90.5c-2.35,1.36-4.58,2.93-7.74,5,22.58,13,44.15,25.68,66,37.85,1.93,1.07,5.9-.14,8.27-1.46,13.79-7.65,27.39-15.65,41.05-23.54ZM671.26,202.47c-2.93-1.81-5.25-3.33-7.64-4.71-17.79-10.32-35.73-20.39-53.33-31-5.27-3.19-9.12-3.11-14.43,0q-78.11,45.59-156.52,90.65c-2.4,1.4-4.77,2.86-8,4.81,21.23,12.28,41.77,24,62.07,36.05,4.7,2.8,8.11,2.86,12.91.06q78.88-45.93,158-91.41C666.45,205.64,668.48,204.24,671.26,202.47ZM465.05,559.37c-2.68-1.78-4.64-3.24-6.74-4.46C440,544.33,421.62,534,403.52,523.11c-4.77-2.86-8.13-2.78-12.94,0q-78.82,45.93-157.94,91.38c-2.22,1.28-4.33,2.77-7.13,4.57,21.27,12.29,41.61,23.78,61.65,35.79,5.09,3,8.73,2.68,13.67-.19Q379,609.22,457.31,564.15C459.68,562.78,462,561.28,465.05,559.37Zm412.8-.13c-21.78-12.57-42.13-24-62.09-36-5.2-3.14-8.81-2.59-13.69.24Q724,568.85,645.64,613.9c-2.51,1.45-4.92,3.09-8.16,5.14,21.35,12.34,41.68,23.83,61.7,35.84,5.09,3,8.72,2.67,13.66-.21q67.47-39.36,135.21-78.25Zm-109.07,272c20.45-11.25,40.61-23,60.64-35,9.18-5.49,11.61-15,7-23.21s-14.65-11.11-24.25-5.74c-19.89,11.1-39.71,22.35-59.1,34.29-4.73,2.91-7.69,8.7-11.46,13.17C742.93,829.91,756.28,838.18,768.78,831.29Zm111.88-71.82a16.68,16.68,0,0,0-15.89-17.33c-9.14-.28-16.34,6.9-16.52,16.51-.2,9.88,6.25,16.9,15.7,17.1S880.45,769.08,880.66,759.47Z" transform="translate(-70.79 -67.45)"/></svg>