<svg id="Layer_1" data-name="Layer 1" xmlns="http://www.w3.org/2000/svg" viewBox="0 0 821.17 856.58"><title>3</title><path d="M511.58,162.19c0,23.67-.63,47.36.45,71,.28,6,4.57,14.18,9.55,17.23,17.18,10.54,26.53,24.73,25.6,44.83-.42,9.21,3.24,14.25,11.06,18.6Q596.3,335,633.65,357.4c7.69,4.6,13.86,4.74,21.54-.16,16.32-10.41,33.54-11,50-.38,8.24,5.33,14.73,4.74,22.9-.28,23.06-14.16,46.39-27.93,70.13-40.93,10.11-5.54,14.87-11.53,14.84-24-.05-23.05,18.09-42.77,38.93-45.61,22.71-3.1,45.79,9.74,52.65,29.3,8.14,23.21.24,48.2-20.23,59.14-16.13,8.63-33.53,8.28-49.36-1-8.11-4.73-13.76-4.15-21.41.45-24.87,15-50.51,28.69-75.14,44-5.07,3.17-9.79,11.22-10,17.16-.6,20.77-9.4,35.25-26.88,46.09-4.69,2.91-8.9,10.53-9.06,16.11q-1.32,45.06,0,90.19c.16,5.33,4.82,12.67,9.53,15.36,17.72,10.11,26.4,24.77,25.7,44.73-.32,9.13,3.07,14.51,10.85,18.89C764.83,641.3,791,656,816.45,671.91c8.62,5.38,13.19.94,19.6-2.67,16.65-9.39,33.9-10.24,50.43-.07s24.8,26,23.36,44.83c-1.58,20.57-12.59,36.09-33.08,42.89-31.43,10.44-61.87-10.91-63.59-46-.57-11.75-4.86-17.38-14.46-22.61-24.61-13.42-48.42-28.31-73.13-41.54-4.92-2.63-13.47-2.61-18.54-.13-18.26,8.93-35.45,8.71-53.69,0-5.11-2.45-13.67-2.4-18.63.26q-39.63,21.33-78,45c-4.69,2.91-8.78,10.62-9,16.26-.75,20.58-9.11,35.31-26.78,46.2-4.89,3-8.9,11.54-9,17.62-.74,46.32-.38,92.67-.48,139,0,4.37.79,10.09-1.55,12.79-2.95,3.4-7,8.24-13,5.69-4.14-1.76-7.95-8.6-8-13.3-.63-37-.33-73.94-.31-110.91,0-7.89-.42-15.8.09-23.66.86-13.54-1.22-23.91-15.57-31.17-15.43-7.81-22.82-22.89-21.67-40.69.62-9.7-3.08-15.08-11.6-19.75-25.45-13.94-50.13-29.31-75.69-43-4.87-2.62-13.47-2.37-18.53.18-18.68,9.43-36.17,10-54.74-.5-4.79-2.71-13.72-2.51-18.66.19-25.06,13.65-49.18,29-74.15,42.82-8.94,4.94-11.86,10.45-12.27,20.77-.8,20.57-10.46,36.7-30.61,44.77-19.11,7.66-35.81,3-50.19-10.8-14.7-14.07-18.33-33.62-10.52-53.06,10.1-25.14,41.56-36.22,66.9-21.87,10,5.66,17.08,4.4,25.72-.71,24.15-14.27,48.34-28.48,72.83-42.17,7.88-4.41,11.24-9.76,10.66-18.88-1.28-20.39,9.21-34,25.77-44.78,5-3.29,9.79-11.14,10-17.06,1-29.05.26-58.15.56-87.24.09-8.83-2.64-14.58-10.93-18.8-17.32-8.8-26.57-23.46-25.32-43.08.64-10.05-3.51-15.24-11.61-19.81-25.29-14.26-50.48-28.72-75.3-43.79-8.85-5.37-15.28-2.52-23,1.94-23.26,13.37-56,3.4-67.22-19.88-11.78-24.52-.8-55.75,23.44-66.67,31.8-14.33,68.45,9.06,68.86,45,.12,10.58,3.69,16.14,12.2,21q37.26,21.12,74,43.15c7.21,4.32,12.76,4.48,20.09-.33,17.76-11.65,35.84-10.61,54.28,0,4.48,2.57,12.66,3.07,17.05.68,25.93-14.07,51.13-29.47,76.83-44,8.19-4.63,11.78-10.24,11.28-20.05-.93-18.19,6.83-33.36,23-41.49,11.31-5.69,14.26-13.19,14.18-24.55-.27-43.38-.11-86.76-.11-130.14a90.08,90.08,0,0,1,.29-10.19C490,79,491,75,500.43,73.58,509,75,510.84,83.22,511.07,88.27,512.19,112.87,511.58,137.54,511.58,162.19ZM330.8,502c0,15.27-.75,30.6.41,45.78.4,5.23,4.35,12.26,8.77,14.73,18.78,10.53,26.64,26.15,27.56,47.13.25,5.58,4.56,13.07,9.28,16,25,15.64,50.44,30.63,76.4,44.59,5.24,2.82,14.58,2.54,19.95-.28,16.68-8.77,33.36-10.58,49.09-.75,10.34,6.46,18.08,4.52,27.09-.73,24.24-14.11,48.9-27.53,72.65-42.43,5-3.14,9.18-11.19,9.67-17.31,1.58-19.55,8.71-34.44,26-45.09,5.57-3.44,11.1-11.82,11.37-18.17,1.2-29,1.09-58.13,0-87.16-.21-6-5.05-14-10.17-17.19-17.49-10.8-26.45-25.15-27.28-45.86-.25-6-4.7-14.09-9.72-17.21-25.47-15.83-51.55-30.71-77.94-45-4.57-2.46-12.6-2.28-17.38.06-18.64,9.1-36.36,9.16-55,0-4.66-2.29-12.58-2.24-17.11.22-25.49,13.83-50.26,29-75.58,43.1-8.7,4.86-12.95,10.52-12,21.06,1.29,14.69-4.05,30.16-16.45,35.71-21.47,9.62-20.47,25.75-19.7,43.59C331.07,485.21,330.77,493.6,330.8,502ZM138.46,736.23c12.23-.26,24.79-12.71,25-24.8.26-13.56-12.87-26.4-26.76-26.18s-24.6,11.82-24.28,26.13C112.72,724.65,125.15,736.51,138.46,736.23Zm361.45,0c12.76-.16,25.64-13.72,25-26.31s-14-25-26.87-24.68c-13.46.29-24.56,12.34-24.3,26.38C474,725.14,485.94,736.39,499.91,736.22ZM137.55,268.07c-14.06-.16-25.1,10.89-25.13,25.16a25.55,25.55,0,0,0,25.26,25.42c12.77.2,25.85-12.72,25.77-25.44C163.36,280.17,151,268.21,137.55,268.07Zm207.17,129c-.34-13.38-13.32-26.24-25.72-25.49-13.23.8-25.56,13.62-25.4,26.4.18,13.38,12.72,25.28,26.12,24.78C334,422.21,345.08,410.82,344.72,397.05ZM836.63,292.59c-.26,14.52,10.31,25.88,24.15,26,13.2.07,25.77-12.21,25.89-25.29.12-12.42-11.69-24.6-24.33-25.11A24.77,24.77,0,0,0,836.63,292.59ZM706,397.32c.12-13-12.17-25.41-25.39-25.72-12.77-.29-25.24,12.59-25.07,25.91A25.58,25.58,0,0,0,681,422.75C694.6,423,705.88,411.51,706,397.32Zm-361.63,209c0-13.24-12.44-25.13-26.1-24.94-13.3.18-24.84,11.19-25.24,24.09-.43,13.73,11,25.32,25.14,25.43C332.12,631,344.38,619.48,344.38,606.28Zm517.3,79c-13.57-.35-24.9,11-25,25-.16,14.26,10.54,25.73,24.16,25.92,12.79.17,25.88-12.36,26.15-25S874.54,685.6,861.68,685.26Zm-156-79.42c-.24-13.17-12.57-24.6-26.45-24.53-13.67.08-24.75,12.07-24.19,26.19.55,13.77,11.13,23.71,25.08,23.56S705.94,619.1,705.7,605.84ZM525.1,294.11c.31-13.26-11.27-25.43-24.67-25.94s-25.87,11-26.32,24.28c-.43,12.88,11.76,25.7,24.83,26.09C512.28,319,524.8,307.25,525.1,294.11ZM539.4,636.9c19.13-10.91,38.49-21.48,57.05-33.3,2.67-1.7,5.55-7.6,1.51-14.16-1.66-2.68-6-7.44-12-4.53-19.77,9.62-38.56,21.24-57.16,33a9.73,9.73,0,0,0-2.44,13c1.64,2.84,2.6,7.11,7.73,6.77C537.48,637.2,538.61,637.35,539.4,636.9ZM383.88,472.34C384,466,381,460,375.18,459.47c-10.18-.47-11.84,7.72-12.1,11.94a540.57,540.57,0,0,0,0,62c.2,3.6,3.95,9.62,11.61,9.48,6.34-.12,8.6-6.11,9.16-10.07,1.36-9.65.44-19.63.46-29.48C384.29,493,383.68,482.59,383.88,472.34Zm142.82-98.7c-1.7,4.36-2.7,9.36,5.51,14.6a568.12,568.12,0,0,0,49.64,28.32c3.34,1.68,9.15,2.44,13.49-3.46,4.22-5.73,1.52-12.41-1.09-14.11-17.93-11.69-33.71-19.11-53.35-30.61C532,366,527.69,371.11,526.7,373.64Z" transform="translate(-88.83 -73.58)"/></svg>