<svg id="Layer_1" data-name="Layer 1" xmlns="http://www.w3.org/2000/svg" viewBox="0 0 763.44 777.25"><title>4</title><path d="M479.86,328.83H157.27c-17.93,0-19,.91-19,18.84q-.09,196.11,0,392.2c0,34.1,17.18,50.77,51.13,50.77h332c3.12,0,6.26.16,9.37,0,8.06-.48,15.28,1.76,15.14,10.81-.13,8.63-7.54,9.44-14.82,9.41-38.37-.14-76.75-.06-115.12-.06q-115.79,0-231.57,0c-39.06,0-66.8-27.46-66.81-66.19q-.06-252.33,0-504.64c0-38.5,26.57-65.7,65.06-67a59.8,59.8,0,0,1,9.37,0c11.92,1.49,17.34-1.72,17.34-15.61,0-22.41,19.11-42.85,41.36-45.79,4.66-.62,10.27-.61,14.11,5.59,1.16,8.8-4.75,12-9,13.51-17.64,6.43-24.65,14.17-25.19,33.21-.47,16-.48,32.13.19,48.16.68,16.27,12.82,28.3,27.8,28.86,14.27.54,26.88-10.16,28.1-26.4,1.29-17.28.87-34.73.27-52.08-.3-8.63.76-15.88,10.48-16.75s11.89,6.56,11.37,14.36c-.67,10.18,4,13.09,13.54,13q47.5-.52,95,0c9.85.1,13.09-3.92,13.38-13.54.76-25.68,16.63-43.72,41.37-48.24,7.16-1.31,15-.79,15.23,7.84.12,3.91-6.07,10.15-10.63,11.7-16.65,5.67-24.71,14.58-25.11,31.94q-.54,23.42,0,46.85c.43,18.19,12.31,29.17,28,29.39,16.81.23,28.34-10.52,28.58-29.88q.25-21.42,0-42.83c-.08-6.87.86-12.69,9.3-13.41,7.89-.68,10.56,3.18,11.87,10.82.61,3.54,6.59,8.72,10.22,8.79,33.89.67,67.81.31,101.72.45,10.33,0,10.87-6.68,11.18-14.36,1-25.23,14.37-41.35,38.94-46.91a30,30,0,0,1,11.79-.46C712,113,713,115,714.51,121.29c-1.51,6.71-6.82,8.52-11.3,9.25-20.33,3.34-29.7,13.2-29.89,33.94-.13,15.17-.22,30.35,0,45.51.32,18,12.44,31.12,28.25,31,15.38-.11,27.13-12.36,27.8-30.1.58-15.6.25-31.23.19-46.85,0-7.9,1.79-14.84,11-15.23s10.34,6.57,10.09,13.82c-.27,7.49,3.76,10.21,10.77,10.3,8.46.11,17,0,25.38,1.08,31.88,4,54.63,28.45,54.76,60.54.44,109.31.23,218.63.39,327.94,0,7.44-1,14-10,14.17-9.82.25-10.95-6.61-10.93-14.59q.18-106.43.06-212.83c0-20-.43-20.42-20-20.42Zm-.3-20.13H509q147.16,0,294.33,0c16.24,0,17.68-1.48,17.82-17.45.11-13.38,0-26.76,0-40.14,0-38.68-17.84-55.1-56.58-52.86-9.92.58-13.79,4.27-14.29,14.65-.48,9.85-2.38,20.49-6.85,29.13-9.8,19-33.77,28.14-53.78,22.66-23.07-6.31-37-23.83-37.07-47.63,0-10.23-.47-18.87-14.21-18.77-32.1.26-64.21.11-96.32.1-9.37,0-13.14,4.32-13.54,14-1,25-21.94,49.89-47.81,50.19-25.21.29-49-25.14-49.73-48.69-.43-13.12-6.52-15.7-17.47-15.6-26.31.25-52.62.07-78.93.08-24.25,0-24.25,0-25.7,24-1.37,22.74-13.4,38.63-34.69,45.81-19.23,6.49-39.68.73-53-15.12-10-11.9-12.74-25.88-12.66-41.15,0-4.35-4.19-12.17-7.21-12.56-31.76-4.08-60.52,3-62.88,47.41-.73,13.79-.2,27.65-.15,41.47.07,19.54,1.05,20.55,20.21,20.55Q319,308.72,479.56,308.7ZM880.78,733.28C884.32,818.35,809,892.38,720,887.77c-77.68-4-138.81-64.42-145.11-137.71-5.82-67.74,21.28-118.35,79.62-152.44,7.09-4.14,10.1-9,9.89-17.11-.26-9.77.55-19.57,1.06-29.35.42-8.28,5.33-11.75,13.22-11.77s16.1-.52,24.08.07c10.28.76,14-3,14.23-13.64.74-33.6,20.37-55.9,53.05-62.47,8-1.61,15.85-.79,16.41,7.95.24,3.87-7.21,10.83-12.2,12-23,5.39-36.07,20.49-36.46,44.36-.13,7.53,2.35,11.93,10.7,11.69s17,.17,25.43-.05c10.46-.27,17.77,5.16,16.17,15-4.79,29.13,10.4,43.55,33,58.65C858,636.18,883.68,685,880.78,733.28Zm-155-173.41v-.11h-10.7c-34.29,0-30.18-1.37-30,29,.08,12.64-4.4,19.81-16.26,25.57-39.53,19.19-61.69,52.37-71.76,94.42-2.29,9.55.38,15.67,10.66,17.08,4.53.62,10.49,2.26,11.88,6.82a11.8,11.8,0,0,1-11,15.29c-12.63.15-13.81,6.3-11.12,16.42q21.82,81.9,104.31,100.87c8.82,2,14.27.59,15.68-10.22.53-4,2.55-11,10.59-10.89,8,1.88,8.43,6.74,9,10.65,1.49,10.21,6.35,12.45,15.61,10.69,53.16-10.12,96.05-52.38,105.69-104.26,1.38-7.39.19-12.15-8.65-12.65-7.87-.45-15.08-1.92-15.27-12.65S840.63,723.49,849,723c8.76-.54,11.11-5.36,9.24-13.69-8.44-37.54-27.64-69-61.66-86.35-23-11.71-33-25.13-28.82-50,1.55-9.13-4-13-12.6-13C745.37,559.81,735.56,559.87,725.76,559.87ZM284.06,497.5c-14.71,0-29.44-.5-44.12.16-11.87.54-17.87-4.54-18-16-.25-32.53-.2-65.07-.15-97.6,0-8.83,5.36-13.17,13.56-13.23,33-.22,66-.53,98.94.49,4.34.13,12,7.64,12.11,11.91,1,33.83.69,67.7.58,101.56,0,9.62-5.67,13-14.82,12.83C316.16,497.28,300.11,497.49,284.06,497.5ZM244.4,435.57c0,10.23.27,20.47-.09,30.69-.27,8,3.22,11.22,11.07,11.14q29.36-.27,58.7,0c8.07.06,12.35-2.64,12.17-11.61-.4-19.56-.35-39.14,0-58.7.13-8.23-3.71-11.13-11.28-11.1-20,.08-40,.15-60,0-8.19-.07-10.87,3.94-10.59,11.6C244.65,416.89,244.39,426.24,244.4,435.57ZM528.7,617.4c0,16.5-.19,33,.07,49.5.15,9-4,13.24-12.76,13.25-32.55,0-65.1-.06-97.64,0-8.05,0-13.32-3.67-13.41-11.6q-.57-50.79-.14-101.58c.08-8.4,5.34-12.49,14.1-12.45q48.16.24,96.31,0c10.45-.08,14,4.53,13.64,14.74C528.25,585.28,528.7,601.35,528.7,617.4Zm-20.46,0c0-10.69-.15-21.38.05-32.06.14-7.26-2.87-10.49-10.31-10.41q-30.74.35-61.46,0c-7.45-.08-10.26,3-10.17,10.38q.38,32.07,0,64.14c-.09,7.36,2.73,10.46,10.17,10.39q30.72-.32,61.45,0c7.44.08,10.46-3.14,10.32-10.4C508.09,638.78,508.24,628.09,508.24,617.4ZM236.92,554.55c-10.72-.14-15.34,4.89-15.29,15.46q.26,47.47,0,94.93c-.06,10.74,4.83,15.37,15.4,15.32,32.09-.16,64.19-.22,96.27,0,9.61.07,13.84-4.16,14-13.54.21-16.48,1.49-33,.52-49.4-.29-5-5.87-12.93-10.14-13.74-9-1.72-11.44,6.12-11.46,14,0,9.8-.54,19.64.1,29.4.66,10.18-3.71,13.2-13.34,12.93-18.71-.51-37.45-.48-56.15,0-9,.23-12.83-2.55-12.57-12.12.56-20,.61-40.12,0-60.16-.32-10.13,3.53-13,13.21-12.87,25.84.49,51.71.63,77.53-.24,5.33-.18,14.47-4.84,14.95-8.38,1.34-9.82-7.06-11.67-15.36-11.64-16,.06-32.09,0-48.14,0C269.9,554.6,253.41,554.76,236.92,554.55Zm349.29-68.92c0,7.28,2,13.77,10.8,13.91s10.61-6.61,11.23-13.65c.32-3.54.15-7.13.15-10.7,0-22.29.25-44.59-.1-66.88-.14-8.45,2.87-12.43,11.5-12.35,19.62.16,39.24.07,58.86.06,8.23,0,12.14,3.76,12,12.3-.28,15.15.06,30.32-.09,45.48-.08,8.9.23,19,11.5,18.84,10.65-.15,10.28-10.13,10.24-18.42q-.19-32.1,0-64.2c.08-15.08-3.71-19.29-18.58-19.33-29.88-.09-59.76.28-89.63-.17-12.58-.19-18,5.24-17.94,17.45.13,16,0,32.11,0,48.16C586.17,452.63,586.1,469.13,586.21,485.63Zm-62.34-112.5c-4-.9-10-.1-12.73,2.5-12.34,11.58-24.06,23.85-35.57,36.28-5.87,6.34-10.44,6.64-16.46.14-9.38-10.14-19.45-19.65-29.2-29.46-5.69-5.73-12.29-10.86-19.57-4-8.08,7.61-2.36,14.56,3.55,20.56,9.7,9.85,19.28,19.84,29.38,29.27,6,5.62,5.8,10.14.07,15.55-11.34,10.72-22.5,21.63-33.64,32.56-5.54,5.43-10.45,13.47-1.86,19.64,3.87,2.79,12.74-.57,17.4-4.35,12.05-9.79,22.62-21.46,33.38-32.76,6.27-6.58,11.5-7,17.91-.21,9.81,10.36,20.27,20.1,30.18,30.37,6.08,6.29,12.81,14,21.27,6.51,9.23-8.2.76-15.09-5.23-21-10.12-10.06-20.24-20.13-30.69-29.84-6.4-5.94-7.8-10.69-.62-17.56,10.95-10.44,21-21.83,31.17-33.06,2.85-3.14,4.75-7.14,7.62-11.57C527.89,378.91,526.4,373.71,523.87,373.13ZM790,683.67c-3.87-1.45-10.26-1.66-13.11.65-9.63,7.79-18.27,16.82-27.11,25.56-22.17,21.91-22.13,22-44.1.71-1-.93-1.92-1.85-2.85-2.81-5.37-5.57-12.69-7.94-17.12-1.5-2.56,3.73-1.42,12.93,1.62,17,7.64,10.25,17.25,19,26.18,28.31,10,10.37,16.48,10.61,27,.32q23.85-23.26,47.13-47.1c3-3,5-7,7.94-11.14C793.56,689.83,792.55,684.63,790,683.67Z" transform="translate(-117.56 -110.72)"/></svg>