<svg id="Layer_1" data-name="Layer 1" xmlns="http://www.w3.org/2000/svg" viewBox="0 0 781.04 790.38"><title>5</title><path d="M850.25,524c-.75,167.35-115.46,315.85-277.87,355.86-127,31.29-240.94,1.84-339.11-85.26-55.77-49.5-92-111.53-109.13-183.53C88.43,461.35,148.08,302.89,280.85,216.52c68.63-44.65,144.37-68.1,226.82-64.71,55.56,2.28,107.92,17.5,155.47,47,3.49,2.16,9.86,6.18,5.8,14-5.94,5.14-11,3.1-15.22,1.48-27.56-10.42-54.2-23.59-82.23-32.33-39.94-12.46-81.33-13-122.74-7.48-65.76,8.71-126.17,31-179,71.67-69.38,53.37-113.38,123.17-130.56,208.85-33.55,167.37,61.3,335.31,221.2,393.63,172.7,63,364.54-18.48,437.33-186.09,44.91-103.41,39.79-205.14-11.81-304.94-1-2-1.86-4.27-2.9-6-4-6.64-4-11.64.88-15.48,8.16-5.16,12.83,2.25,15.23,6,19.7,30.45,32.25,64.24,39.71,99.43C844.52,468.63,846.56,496.49,850.25,524ZM382.64,244.47C233.41,296.13,151.76,464.22,203,613.86c54.86,160.25,229.3,243,386,179.19,114-46.4,174.22-135.93,185-257.84,3.6-40.6-4.58-80.71-19.49-118.63-8-20.33-19.45-39.38-30.44-58.36C722,354.58,717,347,709.92,351.88c-7.92,5.12-5.92,10.12-2,16.8.92,1.58,2.36,3.69,3.51,5.61,39.31,65.22,52.53,135,33.78,209.25C703.09,750.15,530.75,837.46,372.52,771.11,266.84,726.79,204.77,627.05,206.2,514.59c1-74.42,29.35-138.37,83.19-191.18C381.53,233,525.91,219.69,632,292.85c6.45,4.44,14.79,11.34,21.05,2.24,6.62-9.6-4.06-13.66-10-18.56a32.29,32.29,0,0,0-3.42-2.15C591,243.62,538.31,227.14,476.33,229.2,446.57,226.43,414.22,233.53,382.64,244.47ZM539.38,729C667.13,692.56,726.76,560.9,687,444.35c-4-11.79-9.89-23.1-16.18-33.89-1.62-2.77-6.77-6.46-12-3.37C654,409.94,653,414,655,419.4c1.09,3,3.13,6.3,4.7,9.53,21.4,44,27.85,90,15.4,137.49-30.66,116.91-149.64,179.21-264,138.24-97.26-34.84-154.77-147.24-118.69-252.21C328.71,346.69,450.43,292.86,546.86,328c10.91,4,21.21,9.75,32.26,13.16,3.94,1.22,9.88,2.81,13-3.38C596,331,594,328,587.3,324.29c-1.64-.9-3.84-2.1-5.83-3.14-61.66-32-124.31-30.38-187.27-4.68-101,41.21-156.1,160.13-124.28,264.12,27.45,89.71,111.44,157,209.91,157.92C499.71,735.46,520.19,734.51,539.38,729ZM671.7,313.68c-18.38,15.77-35.13,33.45-52.39,50.49-5.7,5.63-10.78,9.19-20,6.6-10.79-3-21.4.18-29.73,8.49q-26.75,26.67-53.39,53.43c-8.55,8.61-12.19,19.41-9.07,30.89,2.32,8.54-.63,13.55-6.17,18.86-8.44,8.08-17.36,15.89-24.42,25.08-3.37,4.39-9.57,7.48-3.24,16.69,6.67,5.79,12,.31,16.2-3,9.78-7.8,17.68-17.92,27.22-26.07,3.86-3.29,10.44-6.12,15.07-5.26,14.83,2.74,26.37-1.66,36.57-12.05,14.49-14.75,28.84-29.67,44-43.77,11.15-10.4,15.4-22.23,14.23-37.37-.44-5.67,2.44-13.06,6.35-17.32,10.92-11.9,24.62-21.41,34.59-34,23-29,51-43.33,88.54-37.17,5.16.85,12.76-2.24,16.63-6.11q59.58-59.58,118-120.3c3.13-3.24,5.1-10,4-14.11-.76-2.86-7.66-5.44-12-5.74-11.64-.82-23.36-.37-35.05-.37-9.29,0-14.08-3.81-13.63-13.87.52-11.66.31-23.38,0-35.06-.24-10.43-7.14-14.07-15.9-8.34-3.33,2.17-6,5.36-8.87,8.24-31.9,32.29-63.07,65.34-95.95,96.6-15.55,14.77-25.73,29.66-20.87,51.66C697.83,283.32,688.47,299.28,671.7,313.68ZM720.92,229c27.49-26.52,54.13-53.91,81.23-80.83,3.28-3.25,7.29-5.75,11-8.6l4.06,1.31c0,8.69.55,17.43-.14,26.06-1,12,4.33,16.27,15.83,15.39,7.76-.59,15.61-.11,27.44-.11-5,6.69-6.91,10-9.48,12.63Q811.51,235.57,772,276.1c-12.13,12.43-20,14.08-41.18,8,6.6-7.58,12.27-14.64,18.52-21.14,14.95-15.55,30.56-30.49,45-46.48,3.39-3.76,6.25-12.94,4.15-15.74-5.3-7.09-11.86-2.39-17,2.7q-26.73,26.66-53.45,53.33c-3.42,3.41-7.08,6.58-13.54,12.54C712.19,252.65,709.1,240.43,720.92,229ZM533.51,442.62c14.6-15.19,29.72-29.87,44.54-44.85,7.16-7.23,14.84-8.74,22.32-1.29s5.47,15-1.61,22.19c-15.42,15.62-30.11,32-46.17,46.92-3.91,3.64-12.26,4.55-18,3.48-3.79-.71-6.5-7.17-10.2-11.68C528,451.42,530,446.28,533.51,442.62ZM620,556.36c6.48-23.65,8.32-47.88,1-71.78-1.08-3.53-3-9.58-9.49-8.68C605,478,604,482,603.85,486.7a61.18,61.18,0,0,0,1,9.21c6.82,49.64-8.64,90.87-49,120.71-40.71,30.1-85.4,33.91-130.91,11.66-55.88-27.32-82.28-92.84-62.63-152,19.36-58.31,79.05-94.06,140.19-84.09,6.37,1,14.43,4.33,16.8-5.32,2.46-10.07-5.32-11.37-12.8-12.93-62.41-13.05-131.1,21.57-157.74,79.7-44.93,98,24.94,207.73,132.24,207.69C545.87,661.3,603,618.55,620,556.36ZM456,586.12c26.16,9.58,62.26-.6,80-23.94,6.07-8,10-18,13-27.67,1.11-3.51,2-10.51-5-13.13-8-1.38-10,1.62-13,8.09-.77,1.68-1.36,4.15-2.23,6.2-9.5,22.34-34,36.61-57.51,33.58-21.69-2.79-39.95-21.58-42.76-44-3.18-25.39,9.64-46,33.73-56.78,4.16-1.86,9.73-5.49,8.05-13.21-4.32-6.28-9.43-4.77-13.6-3.56C430,459.49,409.43,488.44,409.31,517,409.18,547.94,428.07,575.9,456,586.12Z" transform="translate(-113.96 -101.62)"/></svg>