<svg id="Layer_1" data-name="Layer 1" xmlns="http://www.w3.org/2000/svg" viewBox="0 0 679.53 815.81"><title>6</title><path d="M499.08,907.61c-65.69,0-131.39.53-197.08-.13-73.91-.75-134-49.14-139.9-115.56a444.17,444.17,0,0,1,12.48-151.76c11.58-44.52,29.17-85.42,63.83-117.47,27.75-25.65,61.17-36.37,97.76-36.84,10.58-.13,21.89,5.95,31.75,11.27,19,10.27,36.45,23.82,56,32.82,63.85,29.38,125.25,21.62,183.21-16.53,26.26-17.28,50.71-34.68,86.06-25.18,40.19,10.79,72.42,31,95.64,65C825,606.26,835.26,667,838.63,729.3c1.31,24.07,2.59,49-2.08,72.37C823.63,866.33,768.28,907,696.15,907.51,630.46,908,564.77,907.61,499.08,907.61Zm.06-50c66.29,0,132.59.47,198.87-.18,37.21-.37,71.76-11.64,85.76-48.68,8.58-22.68,8.6-49.64,7.9-74.56-1.36-48.62-9.69-96.33-33.22-139.9-14.79-27.38-37-45.65-67-56.2-26.93-9.45-43.26,7.78-62.33,19.23-34.29,20.58-70.43,35.35-110.84,38.29-56.33,4.09-107.76-10.62-153-43.34-38.53-27.84-62.43-17-91.28,5-13.18,10.06-23.93,24.86-32.16,39.54C213.85,646.7,210.66,702,207.55,757.71c-3.74,67,44.38,101.22,100.36,100.17C371.63,856.69,435.39,857.6,499.14,857.59Zm-3.67-372.93c-108.6-.06-196.68-88.28-196.75-197s88-196,197.56-195.61c108,.4,196.44,88.55,196.36,195.67C692.56,395.92,603.67,484.72,495.47,484.66ZM644.41,289.25c-.31-83-66.78-148.83-150.1-148.66-82,.17-149,68.13-148.6,150.61S413.6,440.08,496.28,439.78,644.72,372.75,644.41,289.25Z" transform="translate(-160.31 -92)"/></svg>