<svg id="Layer_1" data-name="Layer 1" xmlns="http://www.w3.org/2000/svg" viewBox="0 0 734.22 558.16"><title>7</title><path d="M498.34,779q-147.36,0-294.74,0c-44.67,0-70.79-26-70.8-70.37q0-208.43,0-416.85c0-44.65,25.95-70.85,70.4-70.87q296.85-.07,593.69,0c42,0,69.91,27.29,70,69.08q.28,209.82,0,419.64c0,42-27.75,69.36-69.58,69.38Q647.82,779,498.34,779ZM494.73,552,782.49,265H215.31ZM213.45,734.91H786.91L583.44,531.78c-19.89,20.32-41.34,42.37-63,64.26-14.85,15.05-24.32,15.16-39,0-21.77-22.47-43.22-45.24-63.23-66.22ZM822.94,299.1,622.67,498.51,822.94,699.86ZM382.83,498.72,177.41,295.07V701.76Z" transform="translate(-132.78 -220.81)"/></svg>