<svg id="Layer_1" data-name="Layer 1" xmlns="http://www.w3.org/2000/svg" viewBox="0 0 787.42 788.55"><title>8</title><path d="M688.84,894.22c-144.08-5.7-270.48-56.87-377.94-153-109.24-97.73-173.76-221-198.49-364.78-9.67-56.21-11-113.15,8.65-168.38,14.46-40.74,45.46-68.23,78.73-92.35,22.17-16.08,55.31-11.29,76.53,9.36q70.95,69.06,139.47,140.58c22.07,23.07,19.87,63.74-2.38,87.67-11.05,11.89-23,22.92-34.39,34.5-29.25,29.78-31,70.48-1.74,100.24,46.64,47.45,94.36,93.86,142.49,139.8,24,22.94,64.85,20.89,90.12-3,11.78-11.13,22.29-23.6,33.85-35,27.85-27.41,68.22-29.59,96.38-2.61,45.71,43.8,90.41,88.71,134.38,134.28,26.56,27.52,23.39,66.83-2.27,96.81C823.78,874.93,762.34,898.09,688.84,894.22ZM168.72,216.62c-1.26,3-2.65,5.87-3.61,8.82-19.28,59.48-16.88,118.73-1.36,178.88C217.27,611.68,342.05,753.77,546,822.92c55.39,18.78,112.76,30.8,172,26.19,23.36-1.82,46.54-5.52,67.82-17.5-1.43-3-1.78-4.73-2.83-5.76-49.45-48.46-99.07-96.75-148.33-145.4-7.21-7.13-12.81-4.22-20.1-.9-48,21.91-97,13.2-134.37-23.71q-65.85-65-131.48-130.18c-39.8-39.58-48.4-87.89-23.7-137.9,4.61-9.33,2.66-14.47-3.86-20.91-17.71-17.47-34.71-35.67-52.46-53.1C235.94,281.57,202.84,249.74,168.72,216.62Zm30.1-39.15L364.46,338.3c22.93-15.53,28.3-29.83,13-45.5C334.75,249.14,291.38,206.15,248,163.16c-10.43-10.35-22.18-10-33.36-.63C209.3,167,204.45,172.12,198.82,177.47ZM661,635.6C717.6,692.24,771,745.69,824.66,799.34,848,784.22,853.45,767.69,838,752q-63.19-64.26-127.46-127.47c-10.81-10.7-22.93-10.19-34.72-.33C670.79,628.32,665.49,632.13,661,635.6ZM537.84,110.89c-6.8,5.57-13.34,16.66-12.77,24.85,1,13.83,12.45,20.16,26.85,20.15,56.69,0,109.15,15.59,156.12,46.82,87.3,58,134.77,139.39,138.65,245.05.7,19.15,8.79,29.92,22.34,30,15,.06,24.59-10.88,23.11-30.67-1.81-24.18-4-48.63-9.51-72.17-35.11-151.08-171.18-264.25-320-268.25C554.17,107.83,543.48,106.28,537.84,110.89Zm219,201.49C707.62,240.63,639,203.24,552.27,199.54c-17-.73-28.63,10.11-28.56,24.32.07,13.7,10.94,23.1,27.29,23.61,96.2,3,175.1,65.94,198.27,159.27,4.26,17.16,4.74,35.25,7.27,52.87,1.73,12.09,9.71,18.4,21.28,17.9,11-.47,19.66-6.26,21.4-18.33.77-5.29.13-10.79.13-16.19C797.78,395.37,783.71,351.61,756.81,312.38ZM551.2,292.33c-16.39.3-27.36,9.63-27.49,23.38-.12,12.93,10.07,24.13,25.41,24,54.44-.62,113.37,49.64,113.53,115.09,0,14,8.19,22.14,22.26,22.8,13.2.63,22.4-9.31,23.07-23.78.1-2.16,0-4.33,0-6.5C707.46,365.25,632.2,290.86,551.2,292.33ZM525.52,408c-1.77,13.51,6.25,22.69,18.85,23.68,17.69,1.38,24.23,11,26.77,26.63,2.27,14,11.33,20.73,25.26,19.05,14.29-1.72,20-11.15,19.57-25-1-33.18-32.44-63.27-66.11-63.05C537.09,389.44,527.29,394.48,525.52,408Z" transform="translate(-105.58 -106.09)"/></svg>