<svg id="Layer_1" data-name="Layer 1" xmlns="http://www.w3.org/2000/svg" viewBox="0 0 806.23 806.02"><title>9</title><path d="M903,500.65C903,723.55,724,901.32,501.43,903,283.52,904.66,92.05,723.49,96.91,490.56c4.5-216,182-396,409.2-393.54C733.72,99.47,907.56,290.5,903,500.65ZM500.1,858.91c194.12-.12,352.95-160,355.26-353C857.8,302.36,696.06,142.81,501,141.22c-216.3-1.77-362,179.52-358.84,363C145.48,698.63,304.43,859,500.1,858.91Zm70.76-263c0,31.81.24,63.63-.06,95.44-.38,40.69-30,71.41-68.87,71.86-40.07.47-71.29-29.71-71.66-71q-.88-98,0-196.07c.41-39.89,32.08-70.44,70.83-70.3s69.16,30.82,69.64,71.17C571.17,530,570.86,562.94,570.86,595.91Zm-46.29-1.29c0-30,.11-60.09,0-90.13-.09-17.09-9.27-29-22.5-29.75-13.64-.82-24.69,9.41-24.9,27.2q-1.1,92.71,0,185.43c.23,18.32,10.68,27.75,24.92,26.94,13.58-.77,22.37-12.06,22.46-29.56C524.69,654.71,524.57,624.66,524.57,594.62ZM501,380.32c-38.17.21-70.29-31.82-70.91-70.71-.64-39.7,31.21-72.76,70.31-73,38.7-.23,70.1,31.24,70.44,70.6C571.2,347.56,540.1,380.1,501,380.32Zm.42-49.09c12.19-.36,23.47-12,23-23.73-.54-12.23-11.81-22.13-24.82-21.23-13.61,1-21.13,8.3-21.27,22.24A22.39,22.39,0,0,0,501.43,331.23Z" transform="translate(-96.82 -97)"/></svg>